<svg viewBox="0 0 11 11" xmlns="http://www.w3.org/2000/svg">
<path d="M7.33273 11H0.53833V0H7.10571C8.14352 0 8.93809 0.285857 9.48942 0.857571C10.0408 1.42929 10.3164 2.07796 10.3164 2.8036C10.3164 3.47426 10.1435 4.03498 9.79752 4.48576C9.45159 4.92554 9.00836 5.2059 8.46783 5.32684C9.06241 5.41479 9.55429 5.71164 9.94346 6.21739C10.3326 6.71214 10.5272 7.31134 10.5272 8.01499C10.5272 8.83958 10.2516 9.54323 9.70023 10.1259C9.14889 10.7086 8.35973 11 7.33273 11ZM6.34357 4.05697C6.51654 4.05697 6.66788 3.9965 6.79761 3.87556C6.92733 3.74363 6.9922 3.58421 6.9922 3.3973C6.9922 3.2104 6.92733 3.06197 6.79761 2.95202C6.66788 2.83108 6.51654 2.77061 6.34357 2.77061H3.81391V4.05697H6.34357ZM6.44086 8.22939C6.67869 8.22939 6.86247 8.16892 6.9922 8.04798C7.13273 7.91604 7.203 7.74563 7.203 7.53673C7.203 7.33883 7.13273 7.17391 6.9922 7.04198C6.85166 6.89905 6.66788 6.82759 6.44086 6.82759H3.81391V8.22939H6.44086Z" />
</svg>
