<svg viewBox="0 0 12 11" xmlns="http://www.w3.org/2000/svg">
<path d="M11.0356 10.248H8.52638V9.688C9.22427 9.19733 9.68509 8.848 9.90884 8.64C10.1379 8.42667 10.2525 8.232 10.2525 8.056C10.2525 7.912 10.2019 7.80267 10.1006 7.728C9.99941 7.65333 9.86889 7.616 9.70906 7.616C9.53326 7.616 9.36545 7.656 9.20562 7.736C9.0458 7.816 8.92327 7.90933 8.83803 8.016L8.43848 7.528C8.75279 7.176 9.18165 7 9.72505 7C10.1033 7 10.4123 7.088 10.652 7.264C10.8918 7.44 11.0116 7.68533 11.0116 8C11.0116 8.25067 10.9024 8.50133 10.684 8.752C10.4709 8.99733 10.1219 9.29067 9.63714 9.632H11.0356V10.248Z" />
<path d="M4.44283 6.38166L6.08217 9H8.43839L5.62093 4.5L8.43839 0H6.08217L4.44283 2.61834L2.80348 0H0.447266L3.26472 4.5L0.447266 9H2.80348L4.44283 6.38166Z" />
</svg>
