<svg viewBox="0 0 12 10" xmlns="http://www.w3.org/2000/svg">
<path d="M11.9899 3.248H9.48072V2.688C10.1786 2.19733 10.6394 1.848 10.8632 1.64C11.0923 1.42667 11.2068 1.232 11.2068 1.056C11.2068 0.912 11.1562 0.802667 11.055 0.728C10.9538 0.653333 10.8232 0.616 10.6634 0.616C10.4876 0.616 10.3198 0.656 10.16 0.736C10.0001 0.816 9.87762 0.909333 9.79238 1.016L9.39282 0.528C9.70714 0.176 10.136 0 10.6794 0C11.0576 0 11.3666 0.088 11.6064 0.264C11.8461 0.44 11.966 0.685333 11.966 1C11.966 1.25067 11.8568 1.50133 11.6383 1.752C11.4252 1.99733 11.0763 2.29067 10.5915 2.632H11.9899V3.248Z" />
<path d="M4.39839 7.38166L6.03774 10H8.39395L5.5765 5.5L8.39395 1H6.03774L4.39839 3.61834L2.75905 1H0.402832L3.22028 5.5L0.402832 10H2.75905L4.39839 7.38166Z" />
</svg>
