<svg width="17" height="14" viewBox="0 0 17 14" xmlns="http://www.w3.org/2000/svg">
<path d="M0.32959 0H4.32515V2H0.32959V0Z" />
<path d="M6.32293 0H10.3185V2H6.32293V0Z" />
<path d="M12.3163 0H16.3118V2H12.3163V0Z" />
<path d="M0.32959 4H4.32515V6H0.32959V4Z" />
<path d="M6.32293 4H10.3185V6H6.32293V4Z" />
<path d="M12.3163 4H16.3118V6H12.3163V4Z" />
<path d="M0.32959 8H4.32515V10H0.32959V8Z" />
<path d="M6.32293 8H10.3185V10H6.32293V8Z" />
<path d="M12.3163 8H16.3118V10H12.3163V8Z" />
<path d="M0.32959 12H4.32515V14H0.32959V12Z" />
<path d="M6.32293 12H10.3185V14H6.32293V12Z" />
<path d="M12.3163 12H16.3118V14H12.3163V12Z" />
</svg>
