<svg viewBox="0 0 13 14" xmlns="http://www.w3.org/2000/svg">
<path d="M6.26539 11.3769C4.68717 11.3769 3.48684 10.9636 2.66438 10.137C1.85305 9.31037 1.44738 8.18777 1.44738 6.76915V0H3.44516V6.70213C3.44516 7.60691 3.65911 8.32181 4.14813 8.84681C4.64827 9.37181 5.35402 9.63431 6.26539 9.63431C7.17675 9.63431 7.87695 9.37181 8.36598 8.84681C8.855 8.32181 8.93905 7.60691 8.93905 6.70213V0H10.9368V6.5C10.9368 7.92979 10.6555 9.31037 9.83305 10.137C9.02171 10.9636 7.83249 11.3769 6.26539 11.3769Z" />
<path d="M0.448486 13H12.4352V14H0.448486V13Z" />
</svg>
