<svg viewBox="0 0 23 11" xmlns="http://www.w3.org/2000/svg">
<path fill-rule="evenodd" clip-rule="evenodd" d="M17.1733 0H6.38546C3.78825 0 1.29102 1.8 0.791577 4.4C0.092159 7.9 2.78936 11 6.18549 11H16.9733C19.5705 11 22.0677 9.2 22.5672 6.6C23.2666 3.1 20.5694 0 17.1733 0ZM10.6805 9V7H6.28547C5.58605 7 4.98662 6.6 4.78714 6C4.58716 5.3 4.78714 4.8 4.98662 4.6C5.28658 4.2 5.68604 4 6.18549 4H10.6805V2H6.18549C3.88823 2 2.08994 4.2 2.88934 6.6C3.2888 8.1 4.78714 9 6.28547 9H10.6805ZM17.1733 9H12.6783V7H17.1733C17.6727 7 18.0722 6.8 18.3717 6.4C18.5716 6.2 18.7716 5.7 18.5716 5C18.3717 4.4 17.7727 4 17.0733 4H12.6783V2H17.0733C18.5716 2 19.97 2.9 20.4694 4.4C21.2688 6.8 19.4705 9 17.1733 9Z" />
</svg>
