<svg width="25" height="28" viewBox="0 0 25 28" fill="none" xmlns="http://www.w3.org/2000/svg">
<g opacity="0.5">
<path d="M23.6 8L15.6 0.4C15.4 0.1 15.1 0 14.7 0H1.4C0.6 0 0 0.6 0 1.3V26.6C0 27.4 0.6 28 1.4 28H22.7C23.5 28 24.1 27.4 24.1 26.7V8.9C24 8.5 23.9 8.2 23.6 8ZM22 26H2V2H14.5L22 9.2V26Z" fill="#808080"/>
<path d="M10.8999 21.8999C10.2999 21.8999 9.8999 21.4999 9.8999 20.8999V12.8999C9.8999 12.2999 10.2999 11.8999 10.8999 11.8999C11.4999 11.8999 11.8999 12.2999 11.8999 12.8999V20.8999C11.8999 21.4999 11.4999 21.8999 10.8999 21.8999Z" fill="#808080"/>
<path d="M5.8999 16.8999C5.8999 16.2999 6.2999 15.8999 6.8999 15.8999H14.8999C15.4999 15.8999 15.8999 16.2999 15.8999 16.8999C15.8999 17.4999 15.4999 17.8999 14.8999 17.8999H6.8999C6.3999 17.8999 5.8999 17.4999 5.8999 16.8999Z" fill="#808080"/>
<path d="M14.7002 9.9002C14.1002 9.9002 13.7002 9.5002 13.7002 8.9002V1.2002C13.7002 0.600195 14.1002 0.200195 14.7002 0.200195C15.3002 0.200195 15.7002 0.600195 15.7002 1.2002V8.9002C15.7002 9.4002 15.2002 9.9002 14.7002 9.9002Z" fill="#808080"/>
<path d="M13.7002 8.8999C13.7002 8.2999 14.1002 7.8999 14.7002 7.8999H22.4002C23.0002 7.8999 23.4002 8.2999 23.4002 8.8999C23.4002 9.4999 23.0002 9.8999 22.4002 9.8999H14.7002C14.1002 9.8999 13.7002 9.4999 13.7002 8.8999Z" fill="#808080"/>
</g>
</svg>
