<svg width="24" height="15" viewBox="0 0 24 15" xmlns="http://www.w3.org/2000/svg">
  <path d="M23.9913 2.84561C23.9412 1.27006 22.6732 -1.45078e-07 21.1123 -1.45078e-07C19.5216 -1.45078e-07 18.2276 1.31852 18.2276 2.93823C18.2276 3.46147 18.6444 3.88503 19.1579 3.88503C19.6718 3.88503 20.0882 3.46116 20.0882 2.93823C20.0882 2.36255 20.5475 1.89421 21.1123 1.89421C21.6687 1.89421 22.1171 2.34721 22.1337 2.90817V8.06909C21.3656 6.45368 19.7411 5.34187 17.8609 5.34187C16.1472 5.34187 14.649 6.2626 13.8125 7.64645C13.3047 7.26736 12.6793 7.04531 12.0002 7.04531C11.3219 7.04531 10.6971 7.26736 10.1881 7.64645C9.35188 6.2626 7.85314 5.34187 6.1406 5.34187C4.25859 5.34187 2.6353 6.45674 1.86784 8.07154V2.91124C1.88232 2.34874 2.33073 1.89421 2.8859 1.89421C3.45162 1.89421 3.91149 2.36255 3.91149 2.93823C3.91149 3.46147 4.32824 3.88503 4.8427 3.88503C5.35716 3.88503 5.77361 3.46116 5.77361 2.93823C5.77361 1.31852 4.47812 -1.45078e-07 2.8856 -1.45078e-07C1.32353 -1.45078e-07 0.053677 1.27374 0.00814197 2.85327C0.0072373 2.86615 0.000603169 2.87812 0.000603169 2.89161V2.93025C0.000603169 2.93271 9.89299e-08 2.93578 9.89299e-08 2.93823C9.89299e-08 2.93946 0.000603169 2.94038 0.000603169 2.94191V10.3059C0.000603169 10.8297 0.417958 11.2554 0.933318 11.2554C1.13777 11.2554 1.32414 11.1874 1.47793 11.0736C1.89438 13.3076 3.82193 15 6.14 15C8.76173 15 10.8877 12.8365 10.8877 10.1706C10.8877 9.54465 11.3853 9.0392 11.9998 9.0392C12.615 9.0392 13.112 9.54465 13.112 10.1706C13.112 12.8365 15.238 15 17.8606 15C20.179 15 22.1059 13.3076 22.5215 11.0736C22.6744 11.1874 22.8622 11.2554 23.067 11.2554C23.582 11.2554 24 10.8297 24 10.3059V2.89192C24 2.87566 23.9913 2.86186 23.9913 2.84561ZM8.92819 10.2016C8.9107 11.7517 7.6698 13.0064 6.1403 13.0064C4.60085 13.0064 3.35391 11.7367 3.35391 10.1709C3.35391 8.60552 4.60085 7.33515 6.1403 7.33515C7.6698 7.33515 8.9107 8.58957 8.92819 10.1403C8.92819 10.1489 8.92668 10.1584 8.92668 10.1709C8.92668 10.1798 8.92668 10.1921 8.92819 10.2016ZM17.8609 13.0061C16.3218 13.0061 15.073 11.7364 15.073 10.1706C15.073 10.1614 15.073 10.1519 15.073 10.1427C15.0884 8.58957 16.3308 7.33484 17.8609 7.33484C19.4001 7.33484 20.6488 8.6049 20.6488 10.1706C20.6488 11.7364 19.4001 13.0061 17.8609 13.0061Z" />
</svg>
