<svg viewBox="0 0 24 20" xmlns="http://www.w3.org/2000/svg">
  <path d="M21 9H10V11H21V9Z"/>
  <path d="M23.2426 9.99997L19 5.75732L17.5858 7.17154L21.8284 11.4142L23.2426 9.99997Z"/>
  <path d="M21.8286 8.58573L17.5859 12.8284L19.0002 14.2426L23.2428 9.99994L21.8286 8.58573Z"/>
  <path fill-rule="evenodd" clip-rule="evenodd" d="M16.4546 14.7273C14.9987 16.7117 12.6498 18 10 18C5.58172 18 2 14.4183 2 10C2 5.58172 5.58172 2 10 2C12.6498 2 14.9987 3.2883 16.4546 5.27272L18.2643 4.36786C16.4637 1.73091 13.434 0 10 0C4.47715 0 0 4.47715 0 10C0 15.5228 4.47715 20 10 20C13.434 20 16.4637 18.2691 18.2643 15.6321L16.4546 14.7273Z"/>
</svg>
