<svg viewBox="0 0 16 18" xmlns="http://www.w3.org/2000/svg">
<path d="M14 2H2C0.9 2 0 2.9 0 4V16C0 17.1 0.9 18 2 18H14C15.1 18 16 17.1 16 16V4C16 2.9 15.1 2 14 2ZM14 16H2V6.7H14V16Z" />
<path d="M4.09998 5C3.49998 5 3.09998 4.6 3.09998 4V1C3.09998 0.4 3.49998 0 4.09998 0C4.69998 0 5.09998 0.4 5.09998 1V4C5.09998 4.6 4.59998 5 4.09998 5Z" />
<path d="M11.9 5C11.3 5 10.9 4.6 10.9 4V1C10.9 0.4 11.3 0 11.9 0C12.5 0 12.9 0.4 12.9 1V4C12.9 4.6 12.5 5 11.9 5Z" />
<path d="M4.59998 10.1H3.59998C3.29998 10.1 3.09998 9.89998 3.09998 9.59998V8.59998C3.09998 8.29998 3.29998 8.09998 3.59998 8.09998H4.59998C4.89998 8.09998 5.09998 8.29998 5.09998 8.59998V9.59998C5.09998 9.89998 4.79998 10.1 4.59998 10.1Z" />
<path d="M8.5 10.1H7.5C7.2 10.1 7 9.89998 7 9.59998V8.59998C7 8.29998 7.2 8.09998 7.5 8.09998H8.5C8.8 8.09998 9 8.29998 9 8.59998V9.59998C9 9.89998 8.8 10.1 8.5 10.1Z" />
<path d="M12.4 10.1H11.4C11.1 10.1 10.9 9.89998 10.9 9.59998V8.59998C10.9 8.29998 11.1 8.09998 11.4 8.09998H12.4C12.7 8.09998 12.9 8.29998 12.9 8.59998V9.59998C12.9 9.89998 12.7 10.1 12.4 10.1Z" />
<path d="M4.59998 13.1H3.59998C3.29998 13.1 3.09998 12.9 3.09998 12.6V11.6C3.09998 11.3 3.29998 11.1 3.59998 11.1H4.59998C4.89998 11.1 5.09998 11.3 5.09998 11.6V12.6C5.09998 12.9 4.79998 13.1 4.59998 13.1Z" />
<path d="M8.5 13.1H7.5C7.2 13.1 7 12.9 7 12.6V11.6C7 11.3 7.2 11.1 7.5 11.1H8.5C8.8 11.1 9 11.3 9 11.6V12.6C9 12.9 8.8 13.1 8.5 13.1Z" />
<path d="M12.4 13.1H11.4C11.1 13.1 10.9 12.9 10.9 12.6V11.6C10.9 11.3 11.1 11.1 11.4 11.1H12.4C12.7 11.1 12.9 11.3 12.9 11.6V12.6C12.9 12.9 12.7 13.1 12.4 13.1Z" />
</svg>
