<svg viewBox="0 0 18 18"  xmlns="http://www.w3.org/2000/svg">
<path d="M6.82824 0C3.07271 0 0 3.07271 0 6.82824C0 10.5838 3.07271 13.6565 6.82824 13.6565C10.5838 13.6565 13.6565 10.5838 13.6565 6.82824C13.6565 3.07271 10.5838 0 6.82824 0ZM6.82824 11.9494C4.01159 11.9494 1.70706 9.64489 1.70706 6.82824C1.70706 4.01159 4.01159 1.70706 6.82824 1.70706C9.64489 1.70706 11.9494 4.01159 11.9494 6.82824C11.9494 9.64489 9.64489 11.9494 6.82824 11.9494Z" />
<path d="M1.70706 0H0V8.87671H1.70706V0Z" transform="translate(10.1503 11.2033) rotate(-45)" />
</svg>
