<svg width="26" height="26" viewBox="0 0 26 26" fill="none" xmlns="http://www.w3.org/2000/svg">
<path d="M25.0357 25.8435C24.9982 25.6816 24.9528 25.5171 24.8859 25.3685C24.4739 24.4559 23.8479 23.705 23.0855 23.0603C22.2856 22.3784 21.4162 21.8 20.4264 21.4259C19.4125 21.0465 18.3451 20.9006 17.283 20.7467C16.649 20.6565 16.0203 20.5583 15.4371 20.2904C14.5918 19.9057 13.7839 19.4599 13.206 18.7038C13.0161 18.4544 12.8395 18.1944 12.6442 17.9211C12.5426 18.534 12.6496 19.1071 12.8262 19.6934C12.7111 19.6934 12.6121 19.704 12.5158 19.6908C12.0129 19.6191 11.5073 19.5714 11.0151 19.4573C10.1002 19.2503 9.22269 18.932 8.39338 18.4915C7.1949 17.8548 6.12215 17.0535 5.31692 15.9604C3.85627 13.9758 3.19283 11.7392 3.37207 9.27441C3.45767 8.06722 3.77602 6.92371 4.37526 5.8704C5.46941 3.95216 7.06649 2.7317 9.31097 2.42128C10.1884 2.29658 11.0632 2.34699 11.922 2.53271C12.8904 2.74231 13.8053 3.10049 14.6613 3.59928C16.3842 4.60484 17.7244 5.97387 18.6928 7.70374C19.7228 9.55034 20.207 11.519 19.9636 13.6336C19.9074 14.1138 19.787 14.5887 19.6907 15.0902C18.5216 14.2756 17.2616 14.3314 16.8577 14.5675C18.5564 14.4614 20.4371 15.9816 20.833 17.9848C20.8892 17.9184 20.932 17.8733 20.9694 17.8256C22.2535 16.1514 23.0427 14.2703 23.3236 12.1823C23.4707 11.0653 23.452 9.94567 23.2407 8.83664C22.7912 6.48063 21.6944 4.47483 19.8967 2.85905C17.8769 1.04428 15.4719 0.142204 12.7673 0.0121982C11.6464 -0.0408652 10.5442 0.0811806 9.45275 0.338538C8.22217 0.63304 7.06649 1.1 5.98304 1.74472C4.42876 2.66802 3.12595 3.85929 2.09868 5.35038C0.862742 7.128 0.159169 9.094 0.0227349 11.251C-0.0708965 12.705 0.124392 14.1244 0.61395 15.5041C1.31752 17.486 2.50263 19.0964 4.2522 20.293C5.64597 21.2429 7.18152 21.8557 8.82141 22.2192C9.71492 22.4182 10.6218 22.5296 11.5394 22.5403C12.4918 22.5509 13.4388 22.4845 14.3671 22.2458C14.8754 22.1184 15.389 21.9964 15.9053 21.9247C17.1172 21.7576 18.321 21.8849 19.5007 22.1768C20.6537 22.4633 21.7238 22.9515 22.6789 23.6572C23.5242 24.2834 24.3241 24.9626 24.8217 25.9177C24.8458 25.9575 24.918 25.9735 24.9661 26C24.9902 25.9469 25.0464 25.8886 25.0357 25.8435ZM17.069 18.7887C17.0663 19.2503 17.4516 19.6669 17.8876 19.6695C18.206 19.6722 18.4601 19.4148 18.4601 19.0832C18.4654 18.6189 18.0802 18.1997 17.6495 18.197C17.3098 18.1944 17.0717 18.4358 17.069 18.7887ZM19.688 17.4329C19.6318 17.4594 19.5756 17.608 19.597 17.677C19.68 17.9529 19.7843 18.2236 19.91 18.4836C19.9502 18.5711 20.0893 18.7117 20.1749 18.6772C20.322 18.6242 20.322 18.5207 20.322 18.4146C20.2685 18.0352 20.207 17.7248 19.9475 17.5019C19.886 17.4462 19.7522 17.4037 19.688 17.4329Z" fill="#FF8C00"/>
</svg>
