<svg width="21" height="27" viewBox="0 0 26 26" fill="none" xmlns="http://www.w3.org/2000/svg">
<path d="M0 13.3981C0 11.8835 0.129017 10.9223 3.34452 8.57282C5.99433 6.63107 14.5194 0 14.5194 0V11.068H21V27H2.02457C0.913043 27 0 26.1068 0 25.0194V13.3981Z" fill="#FFC100"/>
<path d="M14.5194 11.068V17.4855L2.61011 25.4175L17.6654 20.6311V11.068H14.5194Z" fill="#BE9E34"/>
<path d="M9.07079 10.7379C9.76549 9.92237 10.7877 9.64082 11.3435 10.0971C11.8992 10.5534 11.7901 11.5826 11.0954 12.3981C10.4007 13.2136 9.37844 13.4952 8.82268 13.0389C8.26691 12.5826 8.37608 11.5534 9.07079 10.7379Z" fill="black"/>
</svg>
