<svg width="13" height="11" viewBox="0 0 13 11" xmlns="http://www.w3.org/2000/svg">
<path d="M6.43103 11C4.50275 11 2.98368 10.4359 1.8738 9.30769L2.96686 7.87083C3.931 8.85002 5.11375 9.33962 6.51511 9.33962C7.26624 9.33962 7.82678 9.19594 8.19674 8.90856C8.57791 8.62119 8.7685 8.2806 8.7685 7.88679C8.7685 7.48234 8.54428 7.16304 8.09584 6.92888C7.64741 6.68408 7.10368 6.4925 6.46466 6.35414C5.82564 6.21577 5.18101 6.0508 4.53078 5.85922C3.89176 5.66763 3.34803 5.34301 2.8996 4.88534C2.45116 4.42767 2.22694 3.83696 2.22694 3.11321C2.22694 2.21916 2.60251 1.47944 3.35364 0.894049C4.11598 0.298016 5.10254 0 6.31331 0C8.03979 0 9.44115 0.49492 10.5174 1.48476L9.3907 2.87373C8.53867 2.06483 7.45682 1.66038 6.14515 1.66038C5.56218 1.66038 5.09693 1.78278 4.74939 2.02758C4.41307 2.26173 4.2449 2.58104 4.2449 2.98549C4.2449 3.25157 4.36262 3.47508 4.59805 3.65602C4.84469 3.83696 5.15859 3.98597 5.53976 4.10305C5.92093 4.20948 6.34134 4.31592 6.80099 4.42235C7.27184 4.52879 7.73709 4.66183 8.19674 4.82148C8.6676 4.97049 9.09361 5.15675 9.47478 5.38026C9.85595 5.60377 10.1643 5.91243 10.3997 6.30624C10.6463 6.70005 10.7696 7.16836 10.7696 7.71118C10.7696 8.66909 10.4053 9.4567 9.67658 10.074C8.94787 10.6913 7.86602 11 6.43103 11Z" />
<path d="M0.404053 5H12.3907V6H0.404053V5Z" />
</svg>
